<?xml version="1.0" encoding="UTF-8"?>
<svg width="20px" height="20px" viewBox="0 0 20 20" version="1.1" xmlns="http://www.w3.org/2000/svg" xmlns:xlink="http://www.w3.org/1999/xlink">
    <!-- Generator: Sketch 44.1 (41455) - http://www.bohemiancoding.com/sketch -->
    <title>calendar</title>
    <desc>Created with Sketch.</desc>
    <defs></defs>
    <g id="Page-1" stroke="none" stroke-width="1" fill="none" fill-rule="evenodd">
        <g id="交易中心-交易流水" transform="translate(-688.000000, -165.000000)" fill="#616161">
            <g id="订单时间" transform="translate(599.000000, 156.000000)">
                <g id="calendar" transform="translate(89.000000, 9.000000)">
                    <path d="M14,3 L6,3 L6,4 L5,4 L5,3 L3,3 L3,17 L17,17 L17,6 L3,6 L3,5 L17,5 L17,3 L15,3 L15,4 L14,4 L14,3 Z M15,2 L18,2 L18,2.5 L18,17.5 L18,18 L2.5,18 L2,18 L2,2 L2.5,2 L5,2 L5,1 L6,1 L6,2 L14,2 L14,1 L15,1 L15,2 Z M8,8 L9,8 L9,9 L8,9 L8,8 Z M11,8 L12,8 L12,9 L11,9 L11,8 Z M14,8 L15,8 L15,9 L14,9 L14,8 Z M5,11 L6,11 L6,12 L5,12 L5,11 Z M8,11 L9,11 L9,12 L8,12 L8,11 Z M11,11 L12,11 L12,12 L11,12 L11,11 Z M14,11 L15,11 L15,12 L14,12 L14,11 Z M5,14 L6,14 L6,15 L5,15 L5,14 Z M8,14 L9,14 L9,15 L8,15 L8,14 Z M11,14 L12,14 L12,15 L11,15 L11,14 Z"></path>
                </g>
            </g>
        </g>
    </g>
</svg>