<?xml version="1.0" encoding="UTF-8"?>
<svg width="20px" height="20px" viewBox="0 0 20 20" version="1.1" xmlns="http://www.w3.org/2000/svg" xmlns:xlink="http://www.w3.org/1999/xlink">
    <!-- Generator: Sketch 44.1 (41455) - http://www.bohemiancoding.com/sketch -->
    <title>details</title>
    <desc>Created with Sketch.</desc>
    <defs></defs>
    <g id="Page-1" stroke="none" stroke-width="1" fill="none" fill-rule="evenodd">
        <g id="交易中心-商户利润明细" transform="translate(-1628.000000, -332.000000)" fill-rule="nonzero" fill="#5F5F5F">
            <g id="表" transform="translate(283.000000, 257.000000)">
                <g id="表内文字" transform="translate(158.000000, 69.000000)">
                    <g id="编辑" transform="translate(1181.000000, 0.000000)">
                        <g id="details" transform="translate(6.000000, 6.000000)">
                            <path d="M6,6 L14,6 L14,7 L6,7 L6,6 Z M6,9 L14,9 L14,10 L6,10 L6,9 Z M6,12 L11,12 L11,13 L6,13 L6,12 Z M3,3 L17,3 L17,17 L3,17 L3,3 Z M4,4 L4,16 L16,16 L16,4 L4,4 Z"></path>
                        </g>
                    </g>
                </g>
            </g>
        </g>
    </g>
</svg>