<?xml version="1.0" encoding="UTF-8"?>
<svg width="20px" height="20px" viewBox="0 0 20 20" version="1.1" xmlns="http://www.w3.org/2000/svg" xmlns:xlink="http://www.w3.org/1999/xlink">
    <!-- Generator: Sketch 44.1 (41455) - http://www.bohemiancoding.com/sketch -->
    <title>edit</title>
    <desc>Created with Sketch.</desc>
    <defs></defs>
    <g id="Page-1" stroke="none" stroke-width="1" fill="none" fill-rule="evenodd">
        <g id="合作商中心-合作商列表" transform="translate(-1405.000000, -332.000000)" fill-rule="nonzero" fill="#5F5F5F">
            <g id="表" transform="translate(283.000000, 257.000000)">
                <g id="表内文字" transform="translate(158.000000, 69.000000)">
                    <g id="编辑" transform="translate(958.000000, 0.000000)">
                        <g id="edit" transform="translate(6.000000, 6.000000)">
                            <path d="M10.3730771,16 L2,16 L2,2 L17,2 L17,8.91932488 C17.695543,8.6882537 18.4928362,8.84949034 19.0463807,9.40303479 C19.8274293,10.1840834 19.8274293,11.4504133 19.0463807,12.2314619 L13.3895264,17.8883162 L9.85399254,18.595423 L10.3730771,16 Z M3,6 L3,15 L10.5857864,15 L16,9.58578644 L16,3 L3,3 L3,5 L16,5 L16,6 L3,6 Z M5,8 L6,8 L6,9 L5,9 L5,8 Z M5,10 L6,10 L6,11 L5,11 L5,10 Z M7,8 L14,8 L14,9 L7,9 L7,8 Z M7,10 L11,10 L11,11 L7,11 L7,10 Z M12.8965144,16.9671147 L18.3392739,11.5243551 C18.7297982,11.1338308 18.7297982,10.5006659 18.3392739,10.1101416 C17.9487496,9.71961728 17.3155846,9.71961728 16.9250603,10.1101416 L11.4823008,15.5529011 L11.1287474,17.3206681 L12.8965144,16.9671147 Z"></path>
                        </g>
                    </g>
                </g>
            </g>
        </g>
    </g>
</svg>