<?xml version="1.0" encoding="UTF-8"?>
<svg width="20px" height="20px" viewBox="0 0 20 20" version="1.1" xmlns="http://www.w3.org/2000/svg" xmlns:xlink="http://www.w3.org/1999/xlink">
    <!-- Generator: Sketch 44.1 (41455) - http://www.bohemiancoding.com/sketch -->
    <title>export</title>
    <desc>Created with Sketch.</desc>
    <defs></defs>
    <g id="Page-1" stroke="none" stroke-width="1" fill="none" fill-rule="evenodd">
        <g id="合作商中心-二维码管理" transform="translate(-1746.000000, -389.000000)" fill-rule="nonzero" fill="#5F5F5F">
            <g id="表" transform="translate(283.000000, 315.000000)">
                <g id="表内文字" transform="translate(26.000000, 69.000000)">
                    <g id="导出" transform="translate(1430.000000, 0.000000)">
                        <g id="export" transform="translate(7.000000, 5.000000)">
                            <path d="M16.296303,10 L14,7.70369699 L14.703697,7 L18.3549363,10.6512393 L17.6512393,11.3549363 L17.6292829,11.3329799 L14.806751,14.1555118 L14,13.3487607 L16.3487607,11 L7,11 L7,10 L16.296303,10 Z M16.5763913,5.29618832 L15.8171374,5.94698286 C14.4948365,4.40431149 12.5714246,3.5 10.5,3.5 C6.63400675,3.5 3.5,6.63400675 3.5,10.5 C3.5,14.3659932 6.63400675,17.5 10.5,17.5 C12.7107905,17.5 14.7497489,16.4688799 16.0665722,14.7448547 L16.8612744,15.3518541 C15.3572383,17.3209841 13.0258276,18.5 10.5,18.5 C6.081722,18.5 2.5,14.918278 2.5,10.5 C2.5,6.081722 6.081722,2.5 10.5,2.5 C12.8664755,2.5 15.0660698,3.53416143 16.5763913,5.29618832 Z"></path>
                        </g>
                    </g>
                </g>
            </g>
        </g>
    </g>
</svg>