<?xml version="1.0" encoding="UTF-8"?>
<svg width="20px" height="22px" viewBox="0 0 20 22" version="1.1" xmlns="http://www.w3.org/2000/svg" xmlns:xlink="http://www.w3.org/1999/xlink">
    <!-- Generator: Sketch 44.1 (41455) - http://www.bohemiancoding.com/sketch -->
    <title>link</title>
    <desc>Created with Sketch.</desc>
    <defs></defs>
    <g id="Page-1" stroke="none" stroke-width="1" fill="none" fill-rule="evenodd">
        <g id="合作商中心-二维码列表" transform="translate(-1746.000000, -496.000000)" fill="#FFFFFF">
            <g id="表" transform="translate(283.000000, 257.000000)">
                <g id="表内文字-copy-3" transform="translate(26.000000, 235.000000)">
                    <g id="绑定" transform="translate(1430.000000, 0.000000)">
                        <g id="link" transform="translate(7.000000, 4.000000)">
                            <g transform="translate(9.595674, 10.620585) rotate(-315.000000) translate(-9.595674, -10.620585) translate(5.595674, 1.620585)">
                                <path d="M6,9 C7.18247367,9.56173197 8,10.7669864 8,12.1631844 L8,14.1631844 C8,16.096181 6.43299662,17.6631844 4.5,17.6631844 C2.56700338,17.6631844 1,16.096181 1,14.1631844 L1,12.1631844 C1,10.7669864 1.81752633,9.56173197 3,9 L3,10.1630013 C2.39277665,10.6191045 2,11.3452755 2,12.1631844 L2,14.1631844 C2,15.5438963 3.11928813,16.6631844 4.5,16.6631844 C5.88071187,16.6631844 7,15.5438963 7,14.1631844 L7,12.1631844 C7,11.3452755 6.60722335,10.6191045 6,10.1630013 L6,9 Z" id="Combined-Shape" fill-rule="nonzero"></path>
                                <rect id="Rectangle-11" x="4" y="5" width="1" height="7"></rect>
                                <path d="M5.98882727,0.00654365634 C7.17130094,0.568275624 7.98882727,1.7735301 7.98882727,3.16972807 L7.98882727,5.16972807 C7.98882727,7.1027247 6.42182389,8.66972807 4.48882727,8.66972807 C2.55583064,8.66972807 0.988827268,7.1027247 0.988827268,5.16972807 L0.988827268,3.16972807 C0.988827268,1.7735301 1.8063536,0.568275624 2.98882727,0.00654365634 L2.98882727,1.16954498 C2.38160392,1.62564815 1.98882727,2.35181916 1.98882727,3.16972807 L1.98882727,5.16972807 C1.98882727,6.55043995 3.10811539,7.66972807 4.48882727,7.66972807 C5.86953914,7.66972807 6.98882727,6.55043995 6.98882727,5.16972807 L6.98882727,3.16972807 C6.98882727,2.35181916 6.59605062,1.62564815 5.98882727,1.16954498 L5.98882727,0.00654365634 Z" id="Combined-Shape-Copy-3" fill-rule="nonzero" transform="translate(4.488827, 4.338136) rotate(-180.000000) translate(-4.488827, -4.338136) "></path>
                            </g>
                        </g>
                    </g>
                </g>
            </g>
        </g>
    </g>
</svg>