<?xml version="1.0" encoding="UTF-8"?>
<svg width="20px" height="20px" viewBox="0 0 20 20" version="1.1" xmlns="http://www.w3.org/2000/svg" xmlns:xlink="http://www.w3.org/1999/xlink">
    <!-- Generator: Sketch 44.1 (41455) - http://www.bohemiancoding.com/sketch -->
    <title>qrcode</title>
    <desc>Created with Sketch.</desc>
    <defs></defs>
    <g id="Page-1" stroke="none" stroke-width="1" fill="none" fill-rule="evenodd">
        <g id="合作商中心-二维码管理" transform="translate(-1666.000000, -389.000000)" fill-rule="nonzero" fill="#5F5F5F">
            <g id="表" transform="translate(283.000000, 315.000000)">
                <g id="表内文字" transform="translate(26.000000, 69.000000)">
                    <g id="生成" transform="translate(1350.000000, 0.000000)">
                        <g id="qrcode" transform="translate(7.000000, 5.000000)">
                            <path d="M14,13 L14,11 L15,11 L15,13 L17,13 L17,14 L15,14 L15,16 L14,16 L14,14 L11,14 L11,13 L14,13 Z M12,14.5 L12,17 L11,17 L11,15 L12,15 L12,14.5 Z M10,12 L10,15 L9,15 L9,12 L7,12 L7,11 L13,11 L13,12 L10,12 Z M11,10 L13,10 L13,9 L9,9 L9,10 L10,10 L10,11 L11,11 L11,10 Z M3,3 L8,3 L8,8 L3,8 L3,3 Z M4,4 L4,7 L7,7 L7,4 L4,4 Z M3,12 L8,12 L8,17 L3,17 L3,12 Z M4,16 L7,16 L7,13 L4,13 L4,16 Z M12,3 L17,3 L17,8 L12,8 L12,3 Z M13,4 L13,7 L16,7 L16,4 L13,4 Z M10,3 L11,3 L11,8 L10,8 L10,3 Z M9,5 L10,5 L10,6 L9,6 L9,5 Z M11,4 L12,4 L12,5 L11,5 L11,4 Z M8,8 L14,8 L14,9 L8,9 L8,8 Z M4,8 L5,8 L5,9 L4,9 L4,8 Z M6,10 L7,10 L7,11 L6,11 L6,10 Z M15,8 L16,8 L16,9 L15,9 L15,8 Z M15,10 L17,10 L17,11 L15,11 L15,10 Z M5,9 L7,9 L7,10 L5,10 L5,9 Z M15,15 L17,15 L17,16 L15,16 L15,15 Z M16,9 L17,9 L17,10 L16,10 L16,9 Z M16,11 L17,11 L17,12 L16,12 L16,11 Z M13,16 L15,16 L15,17 L13,17 L13,16 Z M16,16 L17,16 L17,17 L16,17 L16,16 Z M3,9 L4,9 L4,11 L3,11 L3,9 Z M14,9 L15,9 L15,10 L14,10 L14,9 Z M5,14 L6,14 L6,15 L5,15 L5,14 Z M14,5 L15,5 L15,6 L14,6 L14,5 Z M5,5 L6,5 L6,6 L5,6 L5,5 Z" id="Combined-Shape"></path>
                        </g>
                    </g>
                </g>
            </g>
        </g>
    </g>
</svg>