<?xml version="1.0" encoding="UTF-8"?>
<svg width="20px" height="20px" viewBox="0 0 20 20" version="1.1" xmlns="http://www.w3.org/2000/svg" xmlns:xlink="http://www.w3.org/1999/xlink">
    <!-- Generator: Sketch 44.1 (41455) - http://www.bohemiancoding.com/sketch -->
    <title>search</title>
    <desc>Created with Sketch.</desc>
    <defs></defs>
    <g id="Page-1" stroke="none" stroke-width="1" fill="none" fill-rule="evenodd">
        <g id="合作商中心-二维码管理-添加" transform="translate(-693.000000, -173.000000)" fill-rule="nonzero" fill="#5F5F5F">
            <g id="Group-9-Copy" transform="translate(283.000000, 157.000000)">
                <g id="Group-3-Copy-4" transform="translate(14.000000, 0.000000)">
                    <g id="search" transform="translate(393.000000, 14.000000)">
                        <path d="M11.45084,16.6223848 C7.81820219,16.3660115 4.95083998,13.3378433 4.95083998,9.6399668 C4.95083998,5.77397355 8.08484673,2.6399668 11.95084,2.6399668 C15.8168332,2.6399668 18.95084,5.77397355 18.95084,9.6399668 C18.95084,13.3378433 16.0834778,16.3660115 12.45084,16.6223848 L12.45084,22.1399668 L11.45084,22.1399668 L11.45084,16.6223848 Z M11.95084,15.6399668 C15.2645485,15.6399668 17.95084,12.9536753 17.95084,9.6399668 C17.95084,6.3262583 15.2645485,3.6399668 11.95084,3.6399668 C8.63713148,3.6399668 5.95083998,6.3262583 5.95083998,9.6399668 C5.95083998,12.9536753 8.63713148,15.6399668 11.95084,15.6399668 Z" transform="translate(11.950840, 12.389967) rotate(-315.000000) translate(-11.950840, -12.389967) "></path>
                    </g>
                </g>
            </g>
        </g>
    </g>
</svg>