<?xml version="1.0" encoding="UTF-8"?>
<svg width="20px" height="20px" viewBox="0 0 20 20" version="1.1" xmlns="http://www.w3.org/2000/svg" xmlns:xlink="http://www.w3.org/1999/xlink">
    <!-- Generator: Sketch 44.1 (41455) - http://www.bohemiancoding.com/sketch -->
    <title>settings</title>
    <desc>Created with Sketch.</desc>
    <defs></defs>
    <g id="Page-1" stroke="none" stroke-width="1" fill="none" fill-rule="evenodd">
        <g id="合作商中心-合作商列表" transform="translate(-1486.000000, -331.000000)" stroke="#5F5F5F">
            <g id="表" transform="translate(283.000000, 257.000000)">
                <g id="表内文字" transform="translate(158.000000, 69.000000)">
                    <g id="业务配置" transform="translate(1038.000000, 0.000000)">
                        <g id="settings" transform="translate(7.000000, 5.000000)">
                            <path d="M3.209252,4.40551409 L1.6567734,7.09448591 L3.91534302,8.75601073 L3.86791639,9.05647292 C3.81899169,9.36642592 3.79422863,9.68155587 3.79422863,10 C3.79422863,10.3184441 3.81899169,10.6335741 3.86791639,10.9435271 L3.91534302,11.2439893 L1.6567734,12.9055141 L3.209252,15.5944859 L5.77877794,14.468692 L6.0154046,14.6607971 C6.50631128,15.0593391 7.05700635,15.3784056 7.64778321,15.6048031 L7.93217072,15.7137862 L8.24175003,18.5 L11.3467072,18.5 L11.6562866,15.7137862 L11.9406741,15.6048031 C12.5314509,15.3784056 13.082146,15.0593391 13.5730527,14.6607971 L13.8096793,14.468692 L16.3792053,15.5944859 L17.9316839,12.9055141 L15.6731143,11.2439893 L15.7205409,10.9435271 C15.7694656,10.6335741 15.7942286,10.3184441 15.7942286,10 C15.7942286,9.68155587 15.7694656,9.36642592 15.7205409,9.05647292 L15.6731143,8.75601073 L17.9316839,7.09448591 L16.3792053,4.40551409 L13.8096793,5.53130799 L13.5730527,5.33920291 C13.082146,4.94066089 12.5314509,4.62159443 11.9406741,4.39519686 L11.6562866,4.28621384 L11.3467072,1.5 L8.24175003,1.5 L7.93217072,4.28621384 L7.64778321,4.39519686 C7.05700635,4.62159443 6.50631128,4.94066089 6.0154046,5.33920291 L5.77877794,5.53130799 L3.209252,4.40551409 Z M2.83886245,10.7944608 L3.07774198,10.6187283 L3.37403117,11.0214847 L2.88014595,11.0994423 C2.86416822,10.9982184 2.85040166,10.8965412 2.8388608,10.7944621 Z M9.79422863,13 C8.13737438,13 6.79422863,11.6568542 6.79422863,10 C6.79422863,8.34314575 8.13737438,7 9.79422863,7 C11.4510829,7 12.7942286,8.34314575 12.7942286,10 C12.7942286,11.6568542 11.4510829,13 9.79422863,13 Z"></path>
                        </g>
                    </g>
                </g>
            </g>
        </g>
    </g>
</svg>