<?xml version="1.0" encoding="UTF-8"?>
<svg width="20px" height="20px" viewBox="0 0 20 20" version="1.1" xmlns="http://www.w3.org/2000/svg" xmlns:xlink="http://www.w3.org/1999/xlink">
    <!-- Generator: Sketch 44.1 (41455) - http://www.bohemiancoding.com/sketch -->
    <title>sorting</title>
    <desc>Created with Sketch.</desc>
    <defs></defs>
    <g id="Page-1" stroke="none" stroke-width="1" fill="none" fill-rule="evenodd">
        <g id="合作商中心-合作商列表" transform="translate(-1596.000000, -331.000000)" fill="#5F5F5F">
            <g id="表" transform="translate(283.000000, 257.000000)">
                <g id="表内文字" transform="translate(158.000000, 69.000000)">
                    <g id="划拨" transform="translate(1148.000000, 0.000000)">
                        <g id="sorting" transform="translate(7.000000, 5.000000)">
                            <path d="M6,14 C6,12.8954305 6.8954305,12 8,12 C9.1045695,12 10,12.8954305 10,14 L18,14 L18,15 L9.73243561,15 C9.38662619,15.5978014 8.74028236,16 8,16 C7.25971764,16 6.61337381,15.5978014 6.26756439,15 L3,15 L3,14 L6,14 Z M12,10 C12,8.8954305 12.8954305,8 14,8 C15.1045695,8 16,8.8954305 16,10 L18,10 L18,11 L15.7324356,11 C15.3866262,11.5978014 14.7402824,12 14,12 C13.2597176,12 12.6133738,11.5978014 12.2675644,11 L3,11 L3,10 L12,10 Z M8,6 C8,4.8954305 8.8954305,4 10,4 C11.1045695,4 12,4.8954305 12,6 L18,6 L18,7 L11.7324356,7 C11.3866262,7.59780137 10.7402824,8 10,8 C9.25971764,8 8.61337381,7.59780137 8.26756439,7 L3,7 L3,6 L8,6 Z M10,7 C10.5522847,7 11,6.55228475 11,6 C11,5.44771525 10.5522847,5 10,5 C9.44771525,5 9,5.44771525 9,6 C9,6.55228475 9.44771525,7 10,7 Z M14,11 C14.5522847,11 15,10.5522847 15,10 C15,9.44771525 14.5522847,9 14,9 C13.4477153,9 13,9.44771525 13,10 C13,10.5522847 13.4477153,11 14,11 Z M8,15 C8.55228475,15 9,14.5522847 9,14 C9,13.4477153 8.55228475,13 8,13 C7.44771525,13 7,13.4477153 7,14 C7,14.5522847 7.44771525,15 8,15 Z"></path>
                        </g>
                    </g>
                </g>
            </g>
        </g>
    </g>
</svg>