<?xml version="1.0" encoding="UTF-8"?>
<svg width="20px" height="20px" viewBox="0 0 20 20" version="1.1" xmlns="http://www.w3.org/2000/svg" xmlns:xlink="http://www.w3.org/1999/xlink">
    <!-- Generator: Sketch 44.1 (41455) - http://www.bohemiancoding.com/sketch -->
    <title>visible</title>
    <desc>Created with Sketch.</desc>
    <defs></defs>
    <g id="Page-1" stroke="none" stroke-width="1" fill="none" fill-rule="evenodd">
        <g id="合作商中心-二维码列表" transform="translate(-1666.000000, -331.000000)" fill-rule="nonzero" fill="#5F5F5F">
            <g id="表" transform="translate(283.000000, 257.000000)">
                <g id="表内文字" transform="translate(26.000000, 69.000000)">
                    <g id="查看" transform="translate(1350.000000, 0.000000)">
                        <g id="visible" transform="translate(7.000000, 5.000000)">
                            <path d="M4.30142436,7.58344858 C4.30312542,7.57705651 4.30483727,7.57066744 4.30655992,7.56428138 L4.32497866,7.56924986 C6.0149431,6.55337178 7.95317548,6 9.98686016,6 C13.4103891,6 16.5634181,7.56818674 18.7169279,10.2710792 L18.9737203,10.593382 L18.7063929,10.9070019 C16.5282725,13.4623032 13.389227,14.9850718 10.036263,14.9998908 C10.0241839,14.9999636 10.0120962,15 10,15 C9.99780947,15 9.99561923,14.9999988 9.99342926,14.9999964 C9.99124037,14.9999994 9.98905031,15 9.98686016,15 C6.61534082,15 3.456142,13.4748493 1.26732738,10.9070019 L1,10.593382 L1.25679237,10.2710792 C2.12510176,9.18125514 3.15590853,8.27590648 4.30142436,7.58344858 Z M5.56650568,12.9911408 C4.65568858,11.9532689 4.10350179,10.5928704 4.10350179,9.10350179 C4.10350179,9.03942535 4.10452591,8.97547695 4.10656846,8.91167432 C3.45312328,9.38562678 2.8488626,9.94138664 2.30600222,10.5717793 C3.2420031,11.5890631 4.34983556,12.4086979 5.56650568,12.9911408 Z M5.26261513,8.18605146 C5.20493148,8.48586929 5.17559238,8.79261 5.17559238,9.10350179 C5.17559238,11.7679486 7.33555324,13.9279094 10,13.9279094 C12.6644468,13.9279094 14.8244076,11.7679486 14.8244076,9.10350179 C14.8244076,8.79812044 14.7961007,8.49670604 14.7403958,8.20185151 C13.2988075,7.42114347 11.6793466,7 9.98686016,7 C8.30582697,7 6.69683436,7.41546288 5.26261513,8.18605146 Z M15.8940257,8.93123264 C15.8956727,8.9885457 15.8964982,9.04597299 15.8964982,9.10350179 C15.8964982,10.582442 15.3520171,11.9342118 14.4525739,12.9692921 C15.6514233,12.388273 16.743362,11.576407 17.6677181,10.5717793 C17.1323074,9.9500375 16.53717,9.40089419 15.8940257,8.93123264 Z M10,12.3197735 C8.81580144,12.3197735 7.85581883,11.3597909 7.85581883,10.1755924 C7.85581883,8.99139382 8.81580144,8.03141121 10,8.03141121 C11.1841986,8.03141121 12.1441812,8.99139382 12.1441812,10.1755924 C12.1441812,11.3597909 11.1841986,12.3197735 10,12.3197735 Z"></path>
                        </g>
                    </g>
                </g>
            </g>
        </g>
    </g>
</svg>